<?xml version="1.0" encoding="UTF-8" standalone="no"?>
<svg
   xmlns:dc="http://purl.org/dc/elements/1.1/"
   xmlns:cc="http://creativecommons.org/ns#"
   xmlns:rdf="http://www.w3.org/1999/02/22-rdf-syntax-ns#"
   xmlns:svg="http://www.w3.org/2000/svg"
   xmlns="http://www.w3.org/2000/svg"
   viewBox="0 0 2560 1706.6667"
   height="1706.6667"
   width="2560"
   xml:space="preserve"
   id="svg2"
   version="1.1"><metadata
     id="metadata8"><rdf:RDF><cc:Work
         rdf:about=""><dc:format>image/svg+xml</dc:format><dc:type
           rdf:resource="http://purl.org/dc/dcmitype/StillImage" /></cc:Work></rdf:RDF></metadata><defs
     id="defs6"><linearGradient
       id="linearGradient30"
       spreadMethod="pad"
       gradientTransform="matrix(6.9531369,-208.59409,-208.59409,-6.9531369,1379.3257,863.15674)"
       gradientUnits="userSpaceOnUse"
       y2="0"
       x2="1"
       y1="0"
       x1="0"><stop
         id="stop26"
         offset="0"
         style="stop-opacity:1;stop-color:#e9843e" /><stop
         id="stop28"
         offset="1"
         style="stop-opacity:1;stop-color:#ca5822" /></linearGradient><linearGradient
       id="linearGradient50"
       spreadMethod="pad"
       gradientTransform="matrix(6.9531369,-208.59409,-208.59409,-6.9531369,1420.1121,864.51624)"
       gradientUnits="userSpaceOnUse"
       y2="0"
       x2="1"
       y1="0"
       x1="0"><stop
         id="stop46"
         offset="0"
         style="stop-opacity:1;stop-color:#e9843e" /><stop
         id="stop48"
         offset="1"
         style="stop-opacity:1;stop-color:#ca5822" /></linearGradient><linearGradient
       id="linearGradient70"
       spreadMethod="pad"
       gradientTransform="matrix(6.9531369,-208.59409,-208.59409,-6.9531369,1349.8652,862.17468)"
       gradientUnits="userSpaceOnUse"
       y2="0"
       x2="1"
       y1="0"
       x1="0"><stop
         id="stop66"
         offset="0"
         style="stop-opacity:1;stop-color:#e9843e" /><stop
         id="stop68"
         offset="1"
         style="stop-opacity:1;stop-color:#ca5822" /></linearGradient><clipPath
       id="clipPath80"
       clipPathUnits="userSpaceOnUse"><path
         id="path78"
         d="M 0,1280 H 1920 V 0 H 0 Z" /></clipPath><linearGradient
       id="linearGradient122"
       spreadMethod="pad"
       gradientTransform="matrix(4.6354246,-179.2364,-179.2364,-4.6354246,514.3761,830.53131)"
       gradientUnits="userSpaceOnUse"
       y2="0"
       x2="1"
       y1="0"
       x1="0"><stop
         id="stop118"
         offset="0"
         style="stop-opacity:1;stop-color:#e9843e" /><stop
         id="stop120"
         offset="1"
         style="stop-opacity:1;stop-color:#ca5822" /></linearGradient><linearGradient
       id="linearGradient142"
       spreadMethod="pad"
       gradientTransform="matrix(4.6354246,-179.2364,-179.2364,-4.6354246,678.80817,834.78387)"
       gradientUnits="userSpaceOnUse"
       y2="0"
       x2="1"
       y1="0"
       x1="0"><stop
         id="stop138"
         offset="0"
         style="stop-opacity:1;stop-color:#e9843e" /><stop
         id="stop140"
         offset="1"
         style="stop-opacity:1;stop-color:#ca5822" /></linearGradient><linearGradient
       id="linearGradient162"
       spreadMethod="pad"
       gradientTransform="matrix(4.6354246,-179.2364,-179.2364,-4.6354246,884.20093,840.09576)"
       gradientUnits="userSpaceOnUse"
       y2="0"
       x2="1"
       y1="0"
       x1="0"><stop
         id="stop158"
         offset="0"
         style="stop-opacity:1;stop-color:#e9843e" /><stop
         id="stop160"
         offset="1"
         style="stop-opacity:1;stop-color:#ca5822" /></linearGradient><linearGradient
       id="linearGradient182"
       spreadMethod="pad"
       gradientTransform="matrix(4.6354246,-179.2364,-179.2364,-4.6354246,1091.2164,845.44965)"
       gradientUnits="userSpaceOnUse"
       y2="0"
       x2="1"
       y1="0"
       x1="0"><stop
         id="stop178"
         offset="0"
         style="stop-opacity:1;stop-color:#e9843e" /><stop
         id="stop180"
         offset="1"
         style="stop-opacity:1;stop-color:#ca5822" /></linearGradient></defs><g
     transform="matrix(1.3333333,0,0,-1.3333333,0,1706.6667)"
     id="g10"><path
       id="path12"
       style="fill:#14131c;fill-opacity:1;fill-rule:nonzero;stroke:none"
       d="M 0,0 H 1920 V 1280 H 0 Z" /><g
       id="g14"><g
         id="g16"><g
           id="g22"><g
             id="g24"><path
               id="path32"
               style="fill:url(#linearGradient30);stroke:none"
               d="m 1318.538,868.794 c -23.194,-5.477 -43.198,-16.964 -60.172,-33.431 v 0 c -22.132,-21.471 -34.93,-47.651 -37.898,-78.53 v 0 c -1.641,-17.072 0.165,-33.715 5.312,-50.015 v 0 c 6.067,-19.216 16.657,-35.74 30.641,-50.101 v 0 c 22.896,-23.512 51.326,-35.921 83.343,-40.897 v 0 c 10.163,-1.579 20.426,-1.848 30.699,-1.657 v 0 c 35.147,0.653 70.286,1.589 105.405,3.186 v 0 c 12.509,0.568 25.023,1.036 37.534,1.579 v 0 c 12.489,0.543 24.975,1.122 37.464,1.685 v 0 c 0,0.084 0,0.167 0,0.251 v 0 c -9.641,0.416 -19.282,0.845 -28.925,1.24 v 0 c -3.165,0.13 -6.337,0.118 -9.5,0.264 v 0 c -18.235,0.842 -36.468,1.712 -54.701,2.577 v 0 c -1.356,0.064 -2.71,0.171 -4.065,0.247 v 0 c -8.585,0.486 -17.167,0.992 -25.752,1.446 v 0 c -7.383,0.392 -14.767,0.73 -22.152,1.081 v 0 c -12.354,0.584 -24.709,1.159 -37.065,1.742 v 0 c -6.628,0.312 -13.272,0.452 -19.883,0.991 v 0 c -13.907,1.136 -27.365,4.194 -40.327,9.511 v 0 c -21.195,8.695 -38.642,22.027 -51.925,40.783 v 0 c -15.873,22.418 -23.026,47.194 -20.659,74.629 v 0 c 1.384,16.04 6.394,30.936 14.331,44.874 v 0 c 17.071,29.98 49.678,50.85 81.95,55.392 v 0 c 0.842,0.119 1.647,0.503 2.686,0.831 v 0 c 0,2.552 0.097,4.958 -0.026,7.353 v 0 c -0.129,2.489 0.569,5.074 -0.626,7.586 v 0 c -5.419,-0.281 -10.575,-1.409 -15.689,-2.617" /></g></g></g></g><g
       id="g34"><g
         id="g36"><g
           id="g42"><g
             id="g44"><path
               id="path52"
               style="fill:url(#linearGradient50);stroke:none"
               d="m 1365.522,871.261 c 0.098,-5.151 -0.298,-10.065 0.227,-15.337 v 0 c 2.498,-0.456 4.576,-0.808 6.641,-1.219 v 0 c 2.216,-0.442 4.444,-0.854 6.628,-1.427 v 0 c 21.134,-5.538 39.183,-16.47 53.957,-32.368 v 0 c 24.75,-26.636 34.83,-58.19 28.594,-94.142 v 0 c -5.545,-31.976 -22.324,-57.185 -48.958,-75.771 v 0 c -7.434,-5.187 -15.409,-9.456 -23.547,-13.427 v 0 c -0.626,-0.306 -1.53,-0.414 -1.234,-1.493 v 0 c 0.298,-0.074 0.582,-0.2 0.868,-0.206 v 0 c 8.595,-0.17 17.19,-0.291 25.783,-0.518 v 0 c 1.961,-0.051 3.464,0.765 4.988,1.783 v 0 c 10.976,7.33 20.831,15.892 29.303,26.054 v 0 c 23.263,27.903 35.859,69.253 27.263,108.554 v 0 c -3.891,17.791 -11.118,34.032 -21.997,48.632 v 0 c -8.818,11.834 -19.361,21.895 -31.61,30.13 v 0 c -16.392,11.02 -34.35,18.029 -53.947,20.74 v 0 c -0.305,0.042 -0.614,0.055 -0.945,0.055 v 0 c -0.573,0 -1.213,-0.04 -2.014,-0.04" /></g></g></g></g><g
       id="g54"><g
         id="g56"><g
           id="g62"><g
             id="g64"><path
               id="path72"
               style="fill:url(#linearGradient70);stroke:none"
               d="m 1343.354,872.079 c -0.095,-0.725 -0.234,-1.311 -0.237,-1.899 v 0 c -0.07,-10.226 -0.134,-20.451 -0.155,-30.678 v 0 c -10e-4,-0.838 0.324,-1.677 0.538,-2.713 v 0 c 4.524,-0.102 8.835,-0.314 13.502,0.196 v 0 c 0.161,1.021 0.333,1.604 0.333,2.187 v 0 c -0.01,10.377 -0.03,20.753 -0.081,31.13 v 0 c 0,0.704 -0.27,1.406 -0.418,2.126 v 0 c -2.423,0.586 -4.684,0.364 -6.91,0.309 v 0 c -0.578,-0.014 -1.163,0.016 -1.749,0.048 v 0 c -0.488,0.026 -0.978,0.052 -1.465,0.052 v 0 c -1.142,0 -2.276,-0.142 -3.358,-0.758" /></g></g></g></g><g
       id="g74"><g
         clip-path="url(#clipPath80)"
         id="g76"><g
           transform="translate(774.3168,546.6133)"
           id="g82"><path
             id="path84"
             style="fill:#ffffff;fill-opacity:1;fill-rule:nonzero;stroke:none"
             d="m 0,0 c 0,-0.608 0,-1.088 0,-1.567 -0.002,-16.202 -0.004,-32.404 -0.006,-48.606 0,-1.437 -0.072,-1.511 -1.525,-1.51 -1.765,0 -3.531,10e-4 -5.297,0.011 -1.134,0.006 -1.259,0.14 -1.258,1.299 0.02,12.368 0.041,24.737 0.061,37.106 0,0.194 0,0.388 -0.141,0.634 -1.024,-1.411 -2.061,-2.813 -3.071,-4.234 -5.108,-7.188 -10.207,-14.382 -15.314,-21.571 -1.021,-1.437 -2.076,-2.852 -3.087,-4.296 -0.555,-0.793 -1.214,-1.182 -2.243,-1.15 -3.589,0.113 -2.767,-0.406 -4.998,2.588 -4.397,5.904 -8.713,11.867 -13.052,17.814 -2.59,3.55 -5.16,7.116 -7.843,10.817 -0.027,-0.356 -0.057,-0.564 -0.056,-0.773 0.008,-12.496 0.019,-24.993 0.032,-37.489 0.001,-0.395 0.049,-0.766 -0.556,-0.76 -2.3,0.023 -4.6,0.014 -6.901,0.021 -0.095,10e-4 -0.191,0.044 -0.326,0.077 V -0.17 c 0.056,0.05 0.094,0.113 0.132,0.113 2.301,0.004 4.604,0.036 6.904,-0.036 0.357,-0.011 0.788,-0.433 1.036,-0.773 2.912,-3.982 5.783,-7.993 8.687,-11.98 5.267,-7.231 10.55,-14.45 15.827,-21.674 0.044,-0.06 0.108,-0.105 0.22,-0.211 0.746,1.051 1.482,2.085 2.216,3.121 5.674,8.009 11.348,16.017 17.019,24.027 1.58,2.232 3.158,4.465 4.714,6.713 0.43,0.621 0.922,0.908 1.716,0.889 C -4.786,-0.035 -2.46,0 0,0" /></g><g
           transform="translate(1071.2249,520.3824)"
           id="g86"><path
             id="path88"
             style="fill:#ffffff;fill-opacity:1;fill-rule:nonzero;stroke:none"
             d="m 0,0 c 0.215,-0.025 0.387,-0.062 0.558,-0.062 8.522,-0.007 17.043,-0.018 25.564,-0.009 1.987,0.002 3.926,0.324 5.769,1.104 3.744,1.586 5.745,4.776 5.684,9.057 -0.054,3.778 -2.346,6.991 -5.985,8.389 -2.059,0.79 -4.2,1.079 -6.394,1.079 C 17.058,19.556 8.921,19.562 0.783,19.563 0.535,19.563 0.286,19.543 0,19.53 Z m -8.117,26.077 c 0.568,0 1.078,0 1.589,0 10.442,-0.002 20.883,0 31.325,-0.009 3.285,-0.003 6.548,-0.2 9.715,-1.183 C 42.681,22.351 46.472,15.62 45.769,7.778 45.176,1.157 40.936,-3.502 34.251,-5.26 c -0.837,-0.22 -1.688,-0.384 -2.715,-0.615 5.474,-6.524 10.882,-12.97 16.364,-19.504 -0.253,-0.034 -0.39,-0.067 -0.527,-0.068 -3.071,-0.01 -6.143,-0.029 -9.213,-0.003 -0.318,0.003 -0.733,0.203 -0.935,0.448 -4.803,5.815 -9.584,11.647 -14.361,17.482 -0.339,0.415 -0.677,0.667 -1.272,0.666 -7.089,-0.006 -14.178,0.02 -21.268,0.037 -0.075,0 -0.15,-0.021 -0.323,-0.045 V -25.25 h -8.118 z" /></g><g
           transform="translate(836.7759,540.73)"
           id="g90"><path
             id="path92"
             style="fill:#ffffff;fill-opacity:1;fill-rule:nonzero;stroke:none"
             d="m 0,0 c -4.344,0.018 -8.442,-0.621 -12.196,-2.039 -7.652,-2.888 -12.472,-8.1 -13.02,-16.518 -0.434,-6.678 1.979,-12.219 7.336,-16.348 3.664,-2.824 7.934,-4.203 12.449,-4.852 6.15,-0.884 12.2,-0.551 18.047,1.762 9.387,3.714 14.257,13.159 11.69,22.911 C 22.607,-8.628 18.259,-4.523 12.183,-2.085 8.273,-0.516 4.176,-0.026 0,0 m -0.058,-46.862 c -6.417,0.055 -12.658,0.985 -18.532,3.677 -4.869,2.231 -8.992,5.387 -11.717,10.103 -2.823,4.884 -3.987,10.174 -3.363,15.767 1.249,11.187 7.894,17.995 18.154,21.621 C -9.558,6.412 -3.343,6.91 2.951,6.56 8.155,6.271 13.214,5.348 17.974,3.155 25.764,-0.434 31.123,-6.152 33.047,-14.65 35.511,-25.539 30.57,-36.398 20.835,-41.918 15.938,-44.695 10.639,-46.084 5.074,-46.576 3.369,-46.727 1.653,-46.769 -0.058,-46.862" /></g><g
           transform="translate(1001.0504,500.3974)"
           id="g94"><path
             id="path96"
             style="fill:#ffffff;fill-opacity:1;fill-rule:nonzero;stroke:none"
             d="m 0,0 c 4.228,0.077 8.369,0.659 12.323,2.2 3.824,1.491 7.12,3.748 9.406,7.215 6.833,10.363 2.391,24.103 -9.209,28.676 -5.285,2.084 -10.769,2.58 -16.364,2.043 -4.933,-0.474 -9.606,-1.824 -13.668,-4.775 -4.969,-3.61 -7.719,-8.488 -7.72,-14.671 0,-7.822 3.689,-13.551 10.5,-17.258 C -10.16,0.942 -5.153,0.114 0,0 m -0.001,-6.511 c -6.426,0.064 -12.72,1.017 -18.614,3.796 -6.233,2.939 -10.895,7.449 -13.421,13.961 -3.984,10.274 -0.701,21.886 7.986,28.662 4.476,3.491 9.579,5.417 15.093,6.389 8.162,1.438 16.239,0.974 24.107,-1.603 C 21.837,42.503 27.153,38.43 30.483,32.123 36.22,21.256 34.435,4.532 18.332,-2.859 12.524,-5.524 6.364,-6.437 -0.001,-6.511" /></g><g
           transform="translate(1195.6804,540.1169)"
           id="g98"><path
             id="path100"
             style="fill:#ffffff;fill-opacity:1;fill-rule:nonzero;stroke:none"
             d="m 0,0 c -1.176,-1.647 -2.36,-3.305 -3.458,-4.842 -2.311,1.083 -4.493,2.289 -6.804,3.151 -5.826,2.172 -11.904,2.657 -18.068,2.276 -2.92,-0.18 -5.805,-0.609 -8.573,-1.603 -1.978,-0.71 -3.788,-1.695 -5.034,-3.471 -1.906,-2.716 -1.33,-5.91 1.421,-7.776 2.106,-1.429 4.519,-2.083 6.99,-2.375 4.598,-0.544 9.214,-0.931 13.823,-1.384 4.102,-0.404 8.206,-0.813 12.181,-1.984 2.194,-0.647 4.317,-1.477 6.158,-2.871 4.936,-3.738 6.094,-10.572 2.736,-16.102 -1.87,-3.08 -4.668,-5.034 -7.937,-6.371 -3.707,-1.515 -7.613,-2.186 -11.574,-2.545 -7.063,-0.641 -14.069,-0.261 -20.959,1.475 -4.967,1.253 -9.507,3.436 -13.603,6.706 1.582,1.747 3.15,3.479 4.745,5.241 2.167,-1.712 4.484,-3.103 6.993,-4.165 4.153,-1.758 8.528,-2.513 12.991,-2.82 4.716,-0.324 9.414,-0.18 14.051,0.857 2.324,0.519 4.513,1.345 6.317,2.968 2.254,2.027 2.857,5.167 1.48,7.748 -0.759,1.421 -2.017,2.29 -3.445,2.925 -2.7,1.201 -5.582,1.683 -8.489,1.977 -4.608,0.465 -9.228,0.812 -13.838,1.267 -3.519,0.347 -7.01,0.888 -10.355,2.106 -2.514,0.914 -4.809,2.188 -6.504,4.315 -3.467,4.354 -3.14,11.233 0.693,15.402 2.73,2.969 6.204,4.625 10.035,5.612 7.898,2.034 15.853,1.995 23.83,0.541 C -9.672,5.433 -5.398,3.935 -1.578,1.307 -1.094,0.974 -0.637,0.601 -0.172,0.242 -0.116,0.199 -0.086,0.123 0,0" /></g><g
           transform="translate(946.7809,539.988)"
           id="g102"><path
             id="path104"
             style="fill:#ffffff;fill-opacity:1;fill-rule:nonzero;stroke:none"
             d="m 0,0 h -23.285 c -0.019,-0.35 -0.05,-0.643 -0.05,-0.937 -10e-4,-14.261 0.001,-28.521 0.003,-42.782 0,-1.223 -0.009,-1.231 -1.25,-1.228 -1.997,0.005 -3.993,0.007 -5.989,0.006 -1.057,-10e-4 -1.115,0.054 -1.114,1.133 0.003,14.057 0.007,28.113 0.01,42.17 0,0.505 0,1.011 0,1.615 -0.348,0 -0.62,0 -0.893,0 -6.936,0.006 -13.872,0.01 -20.808,0.02 -1.316,0.001 -1.319,0.013 -1.318,1.337 0,1.329 -0.002,2.658 0.007,3.987 0.007,1.145 0.192,1.332 1.353,1.332 8.037,-0.002 16.074,-0.006 24.11,-0.013 9.47,-0.009 18.94,-0.023 28.41,-0.034 0.25,-10e-4 0.501,0 0.814,0 z" /></g></g></g><g
       id="g106"><g
         id="g108"><g
           id="g114"><g
             id="g116"><path
               id="path124"
               style="fill:url(#linearGradient122);stroke:none"
               d="m 577.243,820.785 c -2.518,0 -5.037,0.229 -7.556,0.458 v 0 c -9.386,-32.051 -36.4,-102.335 -50.137,-132.784 v 0 h -0.687 c -14.193,32.509 -38.461,94.322 -51.282,132.784 v 0 c -3.434,-0.229 -8.012,-0.458 -11.675,-0.458 v 0 c -3.663,0 -8.7,0.229 -12.821,0.458 v 0 l -0.686,-0.458 C 463.918,771.792 495.054,694.87 505.814,664.65 v 0 c 2.519,0.229 5.265,0.458 7.784,0.458 v 0 c 2.747,0 5.494,-0.229 7.555,-0.458 v 0 c 16.712,41.666 51.053,124.084 65.705,156.135 v 0 l -0.458,0.458 c -2.289,-0.229 -6.868,-0.458 -9.157,-0.458" /></g></g></g></g><g
       id="g126"><g
         id="g128"><g
           id="g134"><g
             id="g136"><path
               id="path144"
               style="fill:url(#linearGradient142);stroke:none"
               d="M 686.173,825.592 C 662.593,772.48 636.035,717.076 610.623,665.108 v 0 l 0.458,-0.458 c 2.061,0.229 5.724,0.458 8.699,0.458 v 0 c 2.52,0 5.724,-0.229 8.243,-0.458 v 0 c 4.121,14.195 12.82,37.317 22.664,60.668 v 0 c 9.386,0.23 18.087,0.23 27.473,0.23 v 0 c 10.074,0 22.436,0 30.449,-0.23 v 0 c 8.241,-21.52 16.712,-45.1 21.291,-60.668 v 0 c 3.892,0.229 8.013,0.458 11.447,0.458 v 0 c 3.663,0 9.843,-0.229 13.736,-0.458 v 0 l 0.687,0.458 c -11.447,24.038 -45.33,107.142 -65.934,160.484 v 0 z m -31.594,-90.43 c 6.869,16.713 20.146,46.246 27.015,60.898 v 0 c 7.097,-17.399 18.773,-48.306 23.352,-60.898 v 0 c -6.411,-0.228 -17.4,-0.228 -25.87,-0.228 v 0 c -7.785,0 -17.858,0 -24.497,0.228" /></g></g></g></g><g
       id="g146"><g
         id="g148"><g
           id="g154"><g
             id="g156"><path
               id="path164"
               style="fill:url(#linearGradient162);stroke:none"
               d="M 959.938,824.449 C 937.502,781.408 903.162,719.824 891.028,698.532 v 0 h -0.916 c -12.82,22.208 -47.39,86.768 -67.994,125.917 v 0 h -3.663 C 814.333,777.287 804.947,713.872 796.248,664.65 v 0 c 2.976,0.229 6.41,0.458 8.699,0.458 v 0 c 2.519,0 6.182,-0.229 8.471,-0.458 v 0 c 0,25.871 5.037,75.778 9.844,114.926 v 0 h 0.916 c 0.916,-1.831 1.832,-4.121 2.976,-6.181 v 0 c 13.279,-23.581 41.896,-75.091 55.632,-108.058 v 0 h 3.663 c 15.796,34.798 48.535,94.78 60.44,114.697 v 0 h 0.915 c 4.121,-36.171 8.471,-86.767 9.616,-115.384 v 0 c 4.35,0.229 8.241,0.458 11.904,0.458 v 0 c 3.663,0 8.7,-0.229 11.905,-0.458 v 0 c -4.807,24.038 -12.591,96.611 -17.628,159.799 v 0 z" /></g></g></g></g><g
       id="g166"><g
         id="g168"><g
           id="g174"><g
             id="g176"><path
               id="path184"
               style="fill:url(#linearGradient182);stroke:none"
               d="m 1098.857,825.592 c -23.58,-53.112 -50.137,-108.516 -75.55,-160.484 v 0 l 0.458,-0.458 c 2.06,0.229 5.723,0.458 8.7,0.458 v 0 c 2.519,0 5.723,-0.229 8.242,-0.458 v 0 c 4.12,14.195 12.82,37.317 22.665,60.668 v 0 c 9.386,0.23 18.085,0.23 27.472,0.23 v 0 c 10.073,0 22.436,0 30.449,-0.23 v 0 c 8.241,-21.52 16.712,-45.1 21.291,-60.668 v 0 c 3.892,0.229 8.013,0.458 11.446,0.458 v 0 c 3.663,0 9.845,-0.229 13.737,-0.458 v 0 l 0.687,0.458 c -11.447,24.038 -45.331,107.142 -65.934,160.484 v 0 z m -31.594,-90.43 c 6.868,16.713 20.147,46.246 27.015,60.898 v 0 c 7.097,-17.399 18.773,-48.306 23.352,-60.898 v 0 c -6.411,-0.228 -17.4,-0.228 -25.871,-0.228 v 0 c -7.783,0 -17.857,0 -24.496,0.228" /></g></g></g></g></g></svg>