<?xml version="1.0"?>
<svg width="1920" height="1280" xmlns="http://www.w3.org/2000/svg" xmlns:svg="http://www.w3.org/2000/svg">
 <defs>
  <clipPath id="clip-0">
   <path clip-rule="nonzero" d="m1219,408l332,0l0,258l-332,0l0,-258zm0,0" id="svg_1"/>
  </clipPath>
  <clipPath id="clip-1">
   <path clip-rule="nonzero" d="m1318.54,411.21c-23.2,5.47 -43.2,16.96 -60.17,33.43c-22.14,21.47 -34.93,47.65 -37.9,78.53c-1.64,17.07 0.16,33.71 5.31,50.01c6.07,19.22 16.66,35.74 30.64,50.1c22.9,23.52 51.33,35.92 83.35,40.9c10.16,1.58 20.42,1.85 30.69,1.66c35.15,-0.66 70.29,-1.59 105.41,-3.19c12.51,-0.57 25.02,-1.04 37.53,-1.58c12.49,-0.54 24.98,-1.12 37.47,-1.68c0,-0.09 0,-0.17 0,-0.25c-9.64,-0.42 -19.28,-0.85 -28.93,-1.25c-3.16,-0.12 -6.33,-0.11 -9.5,-0.26c-18.23,-0.84 -36.47,-1.71 -54.7,-2.58c-1.36,-0.06 -2.71,-0.17 -4.06,-0.24c-8.59,-0.49 -17.17,-0.99 -25.76,-1.45c-7.38,-0.39 -14.76,-0.73 -22.15,-1.08c-12.35,-0.58 -24.71,-1.16 -37.06,-1.74c-6.63,-0.31 -13.28,-0.45 -19.89,-0.99c-13.91,-1.14 -27.36,-4.19 -40.32,-9.51c-21.2,-8.7 -38.64,-22.03 -51.93,-40.79c-15.87,-22.41 -23.02,-47.19 -20.66,-74.62c1.39,-16.04 6.39,-30.94 14.33,-44.88c17.07,-29.98 49.68,-50.85 81.95,-55.39c0.85,-0.12 1.65,-0.5 2.69,-0.83c0,-2.55 0.1,-4.96 -0.03,-7.35c-0.13,-2.49 0.57,-5.08 -0.62,-7.59c-5.42,0.28 -10.58,1.41 -15.69,2.62" id="svg_2"/>
  </clipPath>
  <linearGradient id="linear-pattern-0" x1="0.48" x2="0.51" y1="0.02" y2="0.98">
   <stop offset="0" stop-color="rgb(91.371155%, 51.763916%, 24.313354%)"/>
   <stop offset="0.06" stop-color="rgb(91.278076%, 51.63269%, 24.229431%)"/>
   <stop offset="0.08" stop-color="rgb(91.064453%, 51.327515%, 24.035645%)"/>
   <stop offset="0.09" stop-color="rgb(90.820312%, 50.98114%, 23.814392%)"/>
   <stop offset="0.11" stop-color="rgb(90.576172%, 50.634766%, 23.594666%)"/>
   <stop offset="0.13" stop-color="rgb(90.332031%, 50.286865%, 23.373413%)"/>
   <stop offset="0.14" stop-color="rgb(90.087891%, 49.940491%, 23.152161%)"/>
   <stop offset="0.16" stop-color="rgb(89.84375%, 49.594116%, 22.932434%)"/>
   <stop offset="0.17" stop-color="rgb(89.599609%, 49.247742%, 22.711182%)"/>
   <stop offset="0.19" stop-color="rgb(89.355469%, 48.901367%, 22.491455%)"/>
   <stop offset="0.2" stop-color="rgb(89.111328%, 48.553467%, 22.270203%)"/>
   <stop offset="0.22" stop-color="rgb(88.867188%, 48.207092%, 22.04895%)"/>
   <stop offset="0.23" stop-color="rgb(88.621521%, 47.860718%, 21.829224%)"/>
   <stop offset="0.25" stop-color="rgb(88.37738%, 47.514343%, 21.607971%)"/>
   <stop offset="0.27" stop-color="rgb(88.13324%, 47.167969%, 21.388245%)"/>
   <stop offset="0.28" stop-color="rgb(87.889099%, 46.821594%, 21.166992%)"/>
   <stop offset="0.3" stop-color="rgb(87.644958%, 46.473694%, 20.947266%)"/>
   <stop offset="0.31" stop-color="rgb(87.400818%, 46.127319%, 20.726013%)"/>
   <stop offset="0.33" stop-color="rgb(87.156677%, 45.780945%, 20.504761%)"/>
   <stop offset="0.34" stop-color="rgb(86.912537%, 45.43457%, 20.285034%)"/>
   <stop offset="0.36" stop-color="rgb(86.668396%, 45.088196%, 20.063782%)"/>
   <stop offset="0.38" stop-color="rgb(86.424255%, 44.740295%, 19.844055%)"/>
   <stop offset="0.39" stop-color="rgb(86.180115%, 44.393921%, 19.622803%)"/>
   <stop offset="0.41" stop-color="rgb(85.935974%, 44.047546%, 19.403076%)"/>
   <stop offset="0.42" stop-color="rgb(85.691833%, 43.701172%, 19.181824%)"/>
   <stop offset="0.44" stop-color="rgb(85.447693%, 43.354797%, 18.960571%)"/>
   <stop offset="0.45" stop-color="rgb(85.203552%, 43.006897%, 18.740845%)"/>
   <stop offset="0.47" stop-color="rgb(84.959412%, 42.660522%, 18.519592%)"/>
   <stop offset="0.48" stop-color="rgb(84.713745%, 42.314148%, 18.299866%)"/>
   <stop offset="0.5" stop-color="rgb(84.469604%, 41.967773%, 18.078613%)"/>
   <stop offset="0.52" stop-color="rgb(84.225464%, 41.621399%, 17.858887%)"/>
   <stop offset="0.53" stop-color="rgb(83.981323%, 41.275024%, 17.637634%)"/>
   <stop offset="0.55" stop-color="rgb(83.737183%, 40.927124%, 17.416382%)"/>
   <stop offset="0.56" stop-color="rgb(83.493042%, 40.58075%, 17.196655%)"/>
   <stop offset="0.58" stop-color="rgb(83.248901%, 40.234375%, 16.975403%)"/>
   <stop offset="0.59" stop-color="rgb(83.004761%, 39.888%, 16.755676%)"/>
   <stop offset="0.61" stop-color="rgb(82.76062%, 39.541626%, 16.534424%)"/>
   <stop offset="0.63" stop-color="rgb(82.516479%, 39.193726%, 16.314697%)"/>
   <stop offset="0.64" stop-color="rgb(82.272339%, 38.847351%, 16.093445%)"/>
   <stop offset="0.66" stop-color="rgb(82.028198%, 38.500977%, 15.872192%)"/>
   <stop offset="0.67" stop-color="rgb(81.784058%, 38.154602%, 15.652466%)"/>
   <stop offset="0.69" stop-color="rgb(81.539917%, 37.808228%, 15.431213%)"/>
   <stop offset="0.7" stop-color="rgb(81.295776%, 37.460327%, 15.211487%)"/>
   <stop offset="0.72" stop-color="rgb(81.051636%, 37.113953%, 14.990234%)"/>
   <stop offset="0.73" stop-color="rgb(80.805969%, 36.767578%, 14.770508%)"/>
   <stop offset="0.75" stop-color="rgb(80.561829%, 36.421204%, 14.549255%)"/>
   <stop offset="0.77" stop-color="rgb(80.317688%, 36.074829%, 14.328003%)"/>
   <stop offset="0.78" stop-color="rgb(80.073547%, 35.728455%, 14.108276%)"/>
   <stop offset="0.8" stop-color="rgb(79.829407%, 35.380554%, 13.887024%)"/>
   <stop offset="0.81" stop-color="rgb(79.585266%, 35.03418%, 13.667297%)"/>
   <stop offset="0.88" stop-color="rgb(79.338074%, 34.684753%, 13.444519%)"/>
   <stop offset="1" stop-color="rgb(79.214478%, 34.509277%, 13.33313%)"/>
  </linearGradient>
  <clipPath id="clip-2">
   <path clip-rule="nonzero" d="m1365,408l114,0l0,237l-114,0l0,-237zm0,0" id="svg_3"/>
  </clipPath>
  <clipPath id="clip-3">
   <path clip-rule="nonzero" d="m1365.52,408.74c0.1,5.15 -0.3,10.06 0.23,15.33c2.5,0.46 4.57,0.81 6.64,1.23c2.22,0.44 4.45,0.85 6.63,1.42c21.13,5.54 39.18,16.47 53.96,32.37c24.75,26.64 34.82,58.19 28.59,94.14c-5.55,31.98 -22.32,57.19 -48.96,75.77c-7.43,5.19 -15.41,9.46 -23.55,13.43c-0.62,0.3 -1.52,0.41 -1.23,1.49c0.3,0.08 0.58,0.2 0.87,0.21c8.59,0.17 17.19,0.29 25.78,0.52c1.96,0.05 3.47,-0.77 4.99,-1.79c10.98,-7.32 20.83,-15.89 29.3,-26.05c23.27,-27.9 35.86,-69.25 27.27,-108.55c-3.9,-17.8 -11.12,-34.04 -22,-48.63c-8.82,-11.84 -19.36,-21.9 -31.61,-30.14c-16.39,-11.02 -34.35,-18.03 -53.95,-20.74c-0.3,-0.04 -0.61,-0.05 -0.94,-0.05c-0.58,0 -1.22,0.04 -2.02,0.04" id="svg_4"/>
  </clipPath>
  <linearGradient id="linear-pattern-1" x1="0.46" x2="0.52" y1="0.01" y2="0.99">
   <stop offset="0" stop-color="rgb(91.371155%, 51.763916%, 24.313354%)"/>
   <stop offset="0.03" stop-color="rgb(91.371155%, 51.763916%, 24.313354%)"/>
   <stop offset="0.05" stop-color="rgb(91.294861%, 51.654053%, 24.243164%)"/>
   <stop offset="0.06" stop-color="rgb(91.108704%, 51.390076%, 24.075317%)"/>
   <stop offset="0.08" stop-color="rgb(90.890503%, 51.080322%, 23.878479%)"/>
   <stop offset="0.09" stop-color="rgb(90.672302%, 50.770569%, 23.681641%)"/>
   <stop offset="0.11" stop-color="rgb(90.454102%, 50.460815%, 23.483276%)"/>
   <stop offset="0.13" stop-color="rgb(90.235901%, 50.151062%, 23.286438%)"/>
   <stop offset="0.14" stop-color="rgb(90.0177%, 49.841309%, 23.0896%)"/>
   <stop offset="0.16" stop-color="rgb(89.7995%, 49.531555%, 22.892761%)"/>
   <stop offset="0.17" stop-color="rgb(89.579773%, 49.221802%, 22.694397%)"/>
   <stop offset="0.19" stop-color="rgb(89.361572%, 48.912048%, 22.497559%)"/>
   <stop offset="0.2" stop-color="rgb(89.143372%, 48.602295%, 22.30072%)"/>
   <stop offset="0.22" stop-color="rgb(88.925171%, 48.292542%, 22.103882%)"/>
   <stop offset="0.23" stop-color="rgb(88.70697%, 47.982788%, 21.907043%)"/>
   <stop offset="0.25" stop-color="rgb(88.48877%, 47.673035%, 21.708679%)"/>
   <stop offset="0.27" stop-color="rgb(88.270569%, 47.363281%, 21.511841%)"/>
   <stop offset="0.28" stop-color="rgb(88.052368%, 47.053528%, 21.315002%)"/>
   <stop offset="0.3" stop-color="rgb(87.834167%, 46.743774%, 21.118164%)"/>
   <stop offset="0.31" stop-color="rgb(87.615967%, 46.434021%, 20.921326%)"/>
   <stop offset="0.33" stop-color="rgb(87.397766%, 46.124268%, 20.722961%)"/>
   <stop offset="0.34" stop-color="rgb(87.179565%, 45.812988%, 20.526123%)"/>
   <stop offset="0.36" stop-color="rgb(86.961365%, 45.503235%, 20.329285%)"/>
   <stop offset="0.38" stop-color="rgb(86.743164%, 45.193481%, 20.132446%)"/>
   <stop offset="0.39" stop-color="rgb(86.524963%, 44.883728%, 19.934082%)"/>
   <stop offset="0.41" stop-color="rgb(86.306763%, 44.573975%, 19.737244%)"/>
   <stop offset="0.42" stop-color="rgb(86.088562%, 44.264221%, 19.540405%)"/>
   <stop offset="0.44" stop-color="rgb(85.870361%, 43.954468%, 19.343567%)"/>
   <stop offset="0.45" stop-color="rgb(85.650635%, 43.644714%, 19.146729%)"/>
   <stop offset="0.47" stop-color="rgb(85.432434%, 43.334961%, 18.948364%)"/>
   <stop offset="0.48" stop-color="rgb(85.214233%, 43.025208%, 18.751526%)"/>
   <stop offset="0.5" stop-color="rgb(84.996033%, 42.715454%, 18.554688%)"/>
   <stop offset="0.52" stop-color="rgb(84.777832%, 42.405701%, 18.357849%)"/>
   <stop offset="0.53" stop-color="rgb(84.559631%, 42.095947%, 18.161011%)"/>
   <stop offset="0.55" stop-color="rgb(84.341431%, 41.786194%, 17.962646%)"/>
   <stop offset="0.56" stop-color="rgb(84.12323%, 41.47644%, 17.765808%)"/>
   <stop offset="0.58" stop-color="rgb(83.905029%, 41.166687%, 17.56897%)"/>
   <stop offset="0.59" stop-color="rgb(83.686829%, 40.856934%, 17.372131%)"/>
   <stop offset="0.61" stop-color="rgb(83.468628%, 40.54718%, 17.173767%)"/>
   <stop offset="0.63" stop-color="rgb(83.250427%, 40.237427%, 16.976929%)"/>
   <stop offset="0.64" stop-color="rgb(83.032227%, 39.927673%, 16.78009%)"/>
   <stop offset="0.66" stop-color="rgb(82.814026%, 39.616394%, 16.583252%)"/>
   <stop offset="0.67" stop-color="rgb(82.595825%, 39.306641%, 16.386414%)"/>
   <stop offset="0.69" stop-color="rgb(82.377625%, 38.996887%, 16.188049%)"/>
   <stop offset="0.7" stop-color="rgb(82.159424%, 38.687134%, 15.991211%)"/>
   <stop offset="0.72" stop-color="rgb(81.939697%, 38.37738%, 15.794373%)"/>
   <stop offset="0.73" stop-color="rgb(81.721497%, 38.067627%, 15.597534%)"/>
   <stop offset="0.75" stop-color="rgb(81.503296%, 37.757874%, 15.400696%)"/>
   <stop offset="0.77" stop-color="rgb(81.285095%, 37.44812%, 15.202332%)"/>
   <stop offset="0.78" stop-color="rgb(81.066895%, 37.138367%, 15.005493%)"/>
   <stop offset="0.8" stop-color="rgb(80.848694%, 36.828613%, 14.808655%)"/>
   <stop offset="0.81" stop-color="rgb(80.630493%, 36.51886%, 14.611816%)"/>
   <stop offset="0.83" stop-color="rgb(80.412292%, 36.209106%, 14.413452%)"/>
   <stop offset="0.84" stop-color="rgb(80.194092%, 35.899353%, 14.216614%)"/>
   <stop offset="0.86" stop-color="rgb(79.975891%, 35.5896%, 14.019775%)"/>
   <stop offset="0.88" stop-color="rgb(79.75769%, 35.279846%, 13.822937%)"/>
   <stop offset="0.89" stop-color="rgb(79.53949%, 34.970093%, 13.626099%)"/>
   <stop offset="0.91" stop-color="rgb(79.322815%, 34.661865%, 13.42926%)"/>
   <stop offset="0.94" stop-color="rgb(79.214478%, 34.509277%, 13.33313%)"/>
   <stop offset="1" stop-color="rgb(79.214478%, 34.509277%, 13.33313%)"/>
  </linearGradient>
  <clipPath id="clip-4">
   <path clip-rule="nonzero" d="m1342,407l16,0l0,37l-16,0l0,-37zm0,0" id="svg_5"/>
  </clipPath>
  <clipPath id="clip-5">
   <path clip-rule="nonzero" d="m1343.36,407.92c-0.1,0.72 -0.24,1.31 -0.24,1.9c-0.07,10.23 -0.14,20.45 -0.16,30.68c0,0.84 0.33,1.68 0.54,2.71c4.52,0.1 8.84,0.31 13.5,-0.19c0.16,-1.03 0.34,-1.61 0.34,-2.19c-0.01,-10.38 -0.04,-20.76 -0.09,-31.13c0,-0.71 -0.27,-1.41 -0.41,-2.13c-2.43,-0.59 -4.69,-0.36 -6.91,-0.31c-0.58,0.02 -1.17,-0.01 -1.75,-0.05c-0.49,-0.02 -0.98,-0.05 -1.47,-0.05c-1.14,0 -2.27,0.14 -3.35,0.76" id="svg_6"/>
  </clipPath>
  <linearGradient id="linear-pattern-2" x1="0.46" x2="0.53" y1="0.01" y2="0.99">
   <stop offset="0" stop-color="rgb(91.371155%, 51.763916%, 24.313354%)"/>
   <stop offset="0.25" stop-color="rgb(91.371155%, 51.763916%, 24.313354%)"/>
   <stop offset="0.38" stop-color="rgb(91.288757%, 51.647949%, 24.238586%)"/>
   <stop offset="0.5" stop-color="rgb(91.073608%, 51.339722%, 24.043274%)"/>
   <stop offset="0.63" stop-color="rgb(90.803528%, 50.958252%, 23.799133%)"/>
   <stop offset="0.75" stop-color="rgb(90.533447%, 50.575256%, 23.556519%)"/>
   <stop offset="0.88" stop-color="rgb(90.264893%, 50.192261%, 23.312378%)"/>
   <stop offset="1" stop-color="rgb(89.994812%, 49.810791%, 23.069763%)"/>
  </linearGradient>
  <clipPath id="clip-6">
   <path clip-rule="nonzero" d="m442,458l145,0l0,158l-145,0l0,-158zm0,0" id="svg_7"/>
  </clipPath>
  <clipPath id="clip-7">
   <path clip-rule="nonzero" d="m577.24,459.21c-2.51,0 -5.03,-0.23 -7.55,-0.45c-9.39,32.05 -36.4,102.33 -50.14,132.78l-0.69,0c-14.19,-32.51 -38.46,-94.32 -51.28,-132.78c-3.43,0.22 -8.01,0.45 -11.67,0.45c-3.67,0 -8.7,-0.23 -12.82,-0.45l-0.69,0.45c21.52,49 52.65,125.92 63.41,156.14c2.52,-0.23 5.27,-0.46 7.79,-0.46c2.74,0 5.49,0.23 7.55,0.46c16.71,-41.67 51.06,-124.08 65.71,-156.14l-0.46,-0.45c-2.29,0.22 -6.87,0.45 -9.16,0.45" id="svg_8"/>
  </clipPath>
  <linearGradient id="linear-pattern-3" x1="0.5" x2="0.53" y1="0.01" y2="0.99">
   <stop offset="0" stop-color="rgb(90.867615%, 51.049805%, 23.858643%)"/>
   <stop offset="0.02" stop-color="rgb(90.782166%, 50.92926%, 23.780823%)"/>
   <stop offset="0.03" stop-color="rgb(90.612793%, 50.688171%, 23.628235%)"/>
   <stop offset="0.05" stop-color="rgb(90.44342%, 50.447083%, 23.474121%)"/>
   <stop offset="0.06" stop-color="rgb(90.274048%, 50.205994%, 23.321533%)"/>
   <stop offset="0.08" stop-color="rgb(90.103149%, 49.964905%, 23.167419%)"/>
   <stop offset="0.09" stop-color="rgb(89.933777%, 49.723816%, 23.014832%)"/>
   <stop offset="0.11" stop-color="rgb(89.764404%, 49.482727%, 22.860718%)"/>
   <stop offset="0.13" stop-color="rgb(89.595032%, 49.241638%, 22.70813%)"/>
   <stop offset="0.14" stop-color="rgb(89.424133%, 49.000549%, 22.554016%)"/>
   <stop offset="0.16" stop-color="rgb(89.254761%, 48.75946%, 22.401428%)"/>
   <stop offset="0.17" stop-color="rgb(89.085388%, 48.518372%, 22.247314%)"/>
   <stop offset="0.19" stop-color="rgb(88.91449%, 48.277283%, 22.094727%)"/>
   <stop offset="0.2" stop-color="rgb(88.745117%, 48.036194%, 21.940613%)"/>
   <stop offset="0.22" stop-color="rgb(88.575745%, 47.795105%, 21.788025%)"/>
   <stop offset="0.23" stop-color="rgb(88.406372%, 47.555542%, 21.633911%)"/>
   <stop offset="0.25" stop-color="rgb(88.235474%, 47.314453%, 21.481323%)"/>
   <stop offset="0.27" stop-color="rgb(88.066101%, 47.073364%, 21.327209%)"/>
   <stop offset="0.28" stop-color="rgb(87.896729%, 46.832275%, 21.174622%)"/>
   <stop offset="0.3" stop-color="rgb(87.72583%, 46.591187%, 21.020508%)"/>
   <stop offset="0.31" stop-color="rgb(87.556458%, 46.350098%, 20.86792%)"/>
   <stop offset="0.33" stop-color="rgb(87.387085%, 46.109009%, 20.713806%)"/>
   <stop offset="0.34" stop-color="rgb(87.217712%, 45.86792%, 20.561218%)"/>
   <stop offset="0.36" stop-color="rgb(87.046814%, 45.626831%, 20.407104%)"/>
   <stop offset="0.38" stop-color="rgb(86.877441%, 45.385742%, 20.252991%)"/>
   <stop offset="0.39" stop-color="rgb(86.708069%, 45.144653%, 20.100403%)"/>
   <stop offset="0.41" stop-color="rgb(86.53717%, 44.903564%, 19.946289%)"/>
   <stop offset="0.42" stop-color="rgb(86.367798%, 44.662476%, 19.793701%)"/>
   <stop offset="0.44" stop-color="rgb(86.198425%, 44.421387%, 19.639587%)"/>
   <stop offset="0.45" stop-color="rgb(86.029053%, 44.180298%, 19.487%)"/>
   <stop offset="0.47" stop-color="rgb(85.858154%, 43.939209%, 19.332886%)"/>
   <stop offset="0.48" stop-color="rgb(85.688782%, 43.69812%, 19.180298%)"/>
   <stop offset="0.5" stop-color="rgb(85.519409%, 43.457031%, 19.026184%)"/>
   <stop offset="0.52" stop-color="rgb(85.350037%, 43.215942%, 18.873596%)"/>
   <stop offset="0.53" stop-color="rgb(85.179138%, 42.976379%, 18.719482%)"/>
   <stop offset="0.55" stop-color="rgb(85.009766%, 42.735291%, 18.566895%)"/>
   <stop offset="0.56" stop-color="rgb(84.840393%, 42.494202%, 18.412781%)"/>
   <stop offset="0.58" stop-color="rgb(84.669495%, 42.253113%, 18.260193%)"/>
   <stop offset="0.59" stop-color="rgb(84.500122%, 42.012024%, 18.106079%)"/>
   <stop offset="0.61" stop-color="rgb(84.33075%, 41.770935%, 17.953491%)"/>
   <stop offset="0.63" stop-color="rgb(84.161377%, 41.529846%, 17.799377%)"/>
   <stop offset="0.64" stop-color="rgb(83.990479%, 41.288757%, 17.64679%)"/>
   <stop offset="0.66" stop-color="rgb(83.821106%, 41.047668%, 17.492676%)"/>
   <stop offset="0.67" stop-color="rgb(83.651733%, 40.80658%, 17.340088%)"/>
   <stop offset="0.69" stop-color="rgb(83.480835%, 40.565491%, 17.185974%)"/>
   <stop offset="0.7" stop-color="rgb(83.311462%, 40.324402%, 17.033386%)"/>
   <stop offset="0.72" stop-color="rgb(83.14209%, 40.083313%, 16.879272%)"/>
   <stop offset="0.73" stop-color="rgb(82.972717%, 39.842224%, 16.726685%)"/>
   <stop offset="0.75" stop-color="rgb(82.801819%, 39.601135%, 16.572571%)"/>
   <stop offset="0.77" stop-color="rgb(82.632446%, 39.360046%, 16.419983%)"/>
   <stop offset="0.78" stop-color="rgb(82.463074%, 39.118958%, 16.265869%)"/>
   <stop offset="0.8" stop-color="rgb(82.293701%, 38.877869%, 16.113281%)"/>
   <stop offset="0.81" stop-color="rgb(82.122803%, 38.638306%, 15.959167%)"/>
   <stop offset="0.83" stop-color="rgb(81.95343%, 38.397217%, 15.80658%)"/>
   <stop offset="0.84" stop-color="rgb(81.784058%, 38.156128%, 15.652466%)"/>
   <stop offset="0.86" stop-color="rgb(81.613159%, 37.915039%, 15.499878%)"/>
   <stop offset="0.88" stop-color="rgb(81.443787%, 37.67395%, 15.345764%)"/>
   <stop offset="0.89" stop-color="rgb(81.274414%, 37.432861%, 15.193176%)"/>
   <stop offset="0.91" stop-color="rgb(81.105042%, 37.191772%, 15.039062%)"/>
   <stop offset="0.92" stop-color="rgb(80.934143%, 36.950684%, 14.886475%)"/>
   <stop offset="0.94" stop-color="rgb(80.764771%, 36.709595%, 14.732361%)"/>
   <stop offset="0.95" stop-color="rgb(80.595398%, 36.468506%, 14.579773%)"/>
   <stop offset="0.97" stop-color="rgb(80.4245%, 36.227417%, 14.425659%)"/>
   <stop offset="0.98" stop-color="rgb(80.255127%, 35.986328%, 14.273071%)"/>
   <stop offset="1" stop-color="rgb(80.085754%, 35.745239%, 14.118958%)"/>
  </linearGradient>
  <clipPath id="clip-8">
   <path clip-rule="nonzero" d="m610,454l146,0l0,162l-146,0l0,-162zm0,0" id="svg_9"/>
  </clipPath>
  <clipPath id="clip-9">
   <path clip-rule="nonzero" d="m686.17,454.41c-23.58,53.11 -50.13,108.52 -75.55,160.48l0.46,0.46c2.06,-0.23 5.72,-0.46 8.7,-0.46c2.52,0 5.72,0.23 8.24,0.46c4.12,-14.19 12.82,-37.32 22.67,-60.67c9.38,-0.23 18.08,-0.23 27.47,-0.23c10.07,0 22.44,0 30.45,0.23c8.24,21.52 16.71,45.1 21.29,60.67c3.89,-0.23 8.01,-0.46 11.45,-0.46c3.66,0 9.84,0.23 13.73,0.46l0.69,-0.46c-11.45,-24.03 -45.33,-107.14 -65.93,-160.48l-3.67,0zm-31.59,90.43c6.87,-16.71 20.15,-46.25 27.01,-60.9c7.1,17.4 18.78,48.31 23.36,60.9c-6.41,0.23 -17.4,0.23 -25.88,0.23c-7.78,0 -17.85,0 -24.49,-0.23" id="svg_10"/>
  </clipPath>
  <linearGradient id="linear-pattern-4" x1="0.47" x2="0.5" y1="0.01" y2="0.99">
   <stop offset="0" stop-color="rgb(90.867615%, 51.049805%, 23.858643%)"/>
   <stop offset="0.02" stop-color="rgb(90.78064%, 50.924683%, 23.779297%)"/>
   <stop offset="0.03" stop-color="rgb(90.606689%, 50.67749%, 23.620605%)"/>
   <stop offset="0.05" stop-color="rgb(90.431213%, 50.430298%, 23.46344%)"/>
   <stop offset="0.06" stop-color="rgb(90.257263%, 50.183105%, 23.306274%)"/>
   <stop offset="0.08" stop-color="rgb(90.083313%, 49.934387%, 23.149109%)"/>
   <stop offset="0.09" stop-color="rgb(89.909363%, 49.687195%, 22.990417%)"/>
   <stop offset="0.11" stop-color="rgb(89.733887%, 49.440002%, 22.833252%)"/>
   <stop offset="0.13" stop-color="rgb(89.559937%, 49.19281%, 22.676086%)"/>
   <stop offset="0.14" stop-color="rgb(89.385986%, 48.944092%, 22.518921%)"/>
   <stop offset="0.16" stop-color="rgb(89.21051%, 48.696899%, 22.360229%)"/>
   <stop offset="0.17" stop-color="rgb(89.03656%, 48.449707%, 22.203064%)"/>
   <stop offset="0.19" stop-color="rgb(88.86261%, 48.202515%, 22.045898%)"/>
   <stop offset="0.2" stop-color="rgb(88.687134%, 47.953796%, 21.888733%)"/>
   <stop offset="0.22" stop-color="rgb(88.513184%, 47.706604%, 21.730042%)"/>
   <stop offset="0.23" stop-color="rgb(88.339233%, 47.459412%, 21.572876%)"/>
   <stop offset="0.25" stop-color="rgb(88.163757%, 47.212219%, 21.41571%)"/>
   <stop offset="0.27" stop-color="rgb(87.989807%, 46.963501%, 21.258545%)"/>
   <stop offset="0.28" stop-color="rgb(87.815857%, 46.716309%, 21.099854%)"/>
   <stop offset="0.3" stop-color="rgb(87.641907%, 46.469116%, 20.942688%)"/>
   <stop offset="0.31" stop-color="rgb(87.466431%, 46.221924%, 20.785522%)"/>
   <stop offset="0.33" stop-color="rgb(87.29248%, 45.973206%, 20.628357%)"/>
   <stop offset="0.34" stop-color="rgb(87.11853%, 45.726013%, 20.469666%)"/>
   <stop offset="0.36" stop-color="rgb(86.943054%, 45.478821%, 20.3125%)"/>
   <stop offset="0.38" stop-color="rgb(86.769104%, 45.231628%, 20.155334%)"/>
   <stop offset="0.39" stop-color="rgb(86.595154%, 44.98291%, 19.998169%)"/>
   <stop offset="0.41" stop-color="rgb(86.419678%, 44.735718%, 19.839478%)"/>
   <stop offset="0.42" stop-color="rgb(86.245728%, 44.488525%, 19.682312%)"/>
   <stop offset="0.44" stop-color="rgb(86.071777%, 44.241333%, 19.525146%)"/>
   <stop offset="0.45" stop-color="rgb(85.896301%, 43.992615%, 19.367981%)"/>
   <stop offset="0.47" stop-color="rgb(85.722351%, 43.745422%, 19.20929%)"/>
   <stop offset="0.48" stop-color="rgb(85.548401%, 43.49823%, 19.052124%)"/>
   <stop offset="0.5" stop-color="rgb(85.372925%, 43.251038%, 18.894958%)"/>
   <stop offset="0.52" stop-color="rgb(85.198975%, 43.002319%, 18.737793%)"/>
   <stop offset="0.53" stop-color="rgb(85.025024%, 42.755127%, 18.579102%)"/>
   <stop offset="0.55" stop-color="rgb(84.851074%, 42.507935%, 18.421936%)"/>
   <stop offset="0.56" stop-color="rgb(84.675598%, 42.260742%, 18.264771%)"/>
   <stop offset="0.58" stop-color="rgb(84.501648%, 42.012024%, 18.107605%)"/>
   <stop offset="0.59" stop-color="rgb(84.327698%, 41.764832%, 17.948914%)"/>
   <stop offset="0.61" stop-color="rgb(84.152222%, 41.517639%, 17.791748%)"/>
   <stop offset="0.63" stop-color="rgb(83.978271%, 41.270447%, 17.634583%)"/>
   <stop offset="0.64" stop-color="rgb(83.804321%, 41.023254%, 17.477417%)"/>
   <stop offset="0.66" stop-color="rgb(83.628845%, 40.774536%, 17.318726%)"/>
   <stop offset="0.67" stop-color="rgb(83.454895%, 40.527344%, 17.16156%)"/>
   <stop offset="0.69" stop-color="rgb(83.280945%, 40.280151%, 17.004395%)"/>
   <stop offset="0.7" stop-color="rgb(83.105469%, 40.032959%, 16.847229%)"/>
   <stop offset="0.72" stop-color="rgb(82.931519%, 39.784241%, 16.688538%)"/>
   <stop offset="0.73" stop-color="rgb(82.757568%, 39.537048%, 16.531372%)"/>
   <stop offset="0.75" stop-color="rgb(82.583618%, 39.289856%, 16.374207%)"/>
   <stop offset="0.77" stop-color="rgb(82.408142%, 39.042664%, 16.217041%)"/>
   <stop offset="0.78" stop-color="rgb(82.234192%, 38.793945%, 16.059875%)"/>
   <stop offset="0.8" stop-color="rgb(82.060242%, 38.546753%, 15.901184%)"/>
   <stop offset="0.81" stop-color="rgb(81.884766%, 38.299561%, 15.744019%)"/>
   <stop offset="0.83" stop-color="rgb(81.710815%, 38.052368%, 15.586853%)"/>
   <stop offset="0.84" stop-color="rgb(81.536865%, 37.80365%, 15.429688%)"/>
   <stop offset="0.86" stop-color="rgb(81.361389%, 37.556458%, 15.270996%)"/>
   <stop offset="0.88" stop-color="rgb(81.187439%, 37.309265%, 15.113831%)"/>
   <stop offset="0.89" stop-color="rgb(81.013489%, 37.062073%, 14.956665%)"/>
   <stop offset="0.91" stop-color="rgb(80.838013%, 36.813354%, 14.7995%)"/>
   <stop offset="0.92" stop-color="rgb(80.664062%, 36.566162%, 14.640808%)"/>
   <stop offset="0.94" stop-color="rgb(80.490112%, 36.31897%, 14.483643%)"/>
   <stop offset="0.95" stop-color="rgb(80.314636%, 36.071777%, 14.326477%)"/>
   <stop offset="0.97" stop-color="rgb(80.140686%, 35.823059%, 14.169312%)"/>
   <stop offset="0.98" stop-color="rgb(79.966736%, 35.575867%, 14.01062%)"/>
   <stop offset="1" stop-color="rgb(79.792786%, 35.328674%, 13.853455%)"/>
  </linearGradient>
  <clipPath id="clip-10">
   <path clip-rule="nonzero" d="m796,455l186,0l0,161l-186,0l0,-161zm0,0" id="svg_11"/>
  </clipPath>
  <clipPath id="clip-11">
   <path clip-rule="nonzero" d="m959.94,455.55c-22.44,43.04 -56.78,104.63 -68.91,125.92l-0.92,0c-12.82,-22.21 -47.39,-86.77 -67.99,-125.92l-3.67,0c-4.12,47.16 -13.5,110.58 -22.2,159.8c2.97,-0.23 6.41,-0.46 8.7,-0.46c2.51,0 6.18,0.23 8.47,0.46c0,-25.87 5.03,-75.78 9.84,-114.92l0.92,0c0.91,1.82 1.83,4.12 2.97,6.18c13.28,23.58 41.9,75.09 55.64,108.05l3.66,0c15.8,-34.8 48.53,-94.78 60.44,-114.7l0.91,0c4.13,36.18 8.47,86.77 9.62,115.39c4.35,-0.23 8.24,-0.46 11.9,-0.46c3.67,0 8.7,0.23 11.91,0.46c-4.81,-24.04 -12.59,-96.61 -17.63,-159.8l-3.66,0zm0,0" id="svg_12"/>
  </clipPath>
  <linearGradient id="linear-pattern-5" x1="0.48" x2="0.5" y1="0.01" y2="0.99">
   <stop offset="0" stop-color="rgb(90.464783%, 50.4776%, 23.493958%)"/>
   <stop offset="0.02" stop-color="rgb(90.377808%, 50.354004%, 23.414612%)"/>
   <stop offset="0.03" stop-color="rgb(90.203857%, 50.106812%, 23.257446%)"/>
   <stop offset="0.05" stop-color="rgb(90.029907%, 49.859619%, 23.100281%)"/>
   <stop offset="0.06" stop-color="rgb(89.854431%, 49.610901%, 22.943115%)"/>
   <stop offset="0.08" stop-color="rgb(89.680481%, 49.363708%, 22.78595%)"/>
   <stop offset="0.09" stop-color="rgb(89.506531%, 49.116516%, 22.627258%)"/>
   <stop offset="0.11" stop-color="rgb(89.332581%, 48.869324%, 22.470093%)"/>
   <stop offset="0.13" stop-color="rgb(89.15863%, 48.622131%, 22.312927%)"/>
   <stop offset="0.14" stop-color="rgb(88.983154%, 48.374939%, 22.155762%)"/>
   <stop offset="0.16" stop-color="rgb(88.809204%, 48.127747%, 21.998596%)"/>
   <stop offset="0.17" stop-color="rgb(88.635254%, 47.879028%, 21.839905%)"/>
   <stop offset="0.19" stop-color="rgb(88.461304%, 47.631836%, 21.682739%)"/>
   <stop offset="0.2" stop-color="rgb(88.285828%, 47.384644%, 21.525574%)"/>
   <stop offset="0.22" stop-color="rgb(88.111877%, 47.137451%, 21.368408%)"/>
   <stop offset="0.23" stop-color="rgb(87.937927%, 46.890259%, 21.211243%)"/>
   <stop offset="0.25" stop-color="rgb(87.763977%, 46.643066%, 21.054077%)"/>
   <stop offset="0.27" stop-color="rgb(87.588501%, 46.395874%, 20.895386%)"/>
   <stop offset="0.28" stop-color="rgb(87.414551%, 46.147156%, 20.73822%)"/>
   <stop offset="0.3" stop-color="rgb(87.240601%, 45.899963%, 20.581055%)"/>
   <stop offset="0.31" stop-color="rgb(87.06665%, 45.652771%, 20.423889%)"/>
   <stop offset="0.33" stop-color="rgb(86.8927%, 45.405579%, 20.266724%)"/>
   <stop offset="0.34" stop-color="rgb(86.717224%, 45.158386%, 20.108032%)"/>
   <stop offset="0.36" stop-color="rgb(86.543274%, 44.911194%, 19.950867%)"/>
   <stop offset="0.38" stop-color="rgb(86.369324%, 44.664001%, 19.793701%)"/>
   <stop offset="0.39" stop-color="rgb(86.195374%, 44.416809%, 19.636536%)"/>
   <stop offset="0.41" stop-color="rgb(86.019897%, 44.168091%, 19.47937%)"/>
   <stop offset="0.42" stop-color="rgb(85.845947%, 43.920898%, 19.322205%)"/>
   <stop offset="0.44" stop-color="rgb(85.671997%, 43.673706%, 19.163513%)"/>
   <stop offset="0.45" stop-color="rgb(85.498047%, 43.426514%, 19.006348%)"/>
   <stop offset="0.47" stop-color="rgb(85.322571%, 43.179321%, 18.849182%)"/>
   <stop offset="0.48" stop-color="rgb(85.148621%, 42.932129%, 18.692017%)"/>
   <stop offset="0.5" stop-color="rgb(84.97467%, 42.684937%, 18.534851%)"/>
   <stop offset="0.52" stop-color="rgb(84.80072%, 42.436218%, 18.377686%)"/>
   <stop offset="0.53" stop-color="rgb(84.62677%, 42.189026%, 18.218994%)"/>
   <stop offset="0.55" stop-color="rgb(84.451294%, 41.941833%, 18.061829%)"/>
   <stop offset="0.56" stop-color="rgb(84.277344%, 41.694641%, 17.904663%)"/>
   <stop offset="0.58" stop-color="rgb(84.103394%, 41.447449%, 17.747498%)"/>
   <stop offset="0.59" stop-color="rgb(83.929443%, 41.200256%, 17.590332%)"/>
   <stop offset="0.61" stop-color="rgb(83.753967%, 40.953064%, 17.431641%)"/>
   <stop offset="0.63" stop-color="rgb(83.580017%, 40.704346%, 17.274475%)"/>
   <stop offset="0.64" stop-color="rgb(83.406067%, 40.457153%, 17.11731%)"/>
   <stop offset="0.66" stop-color="rgb(83.232117%, 40.209961%, 16.960144%)"/>
   <stop offset="0.67" stop-color="rgb(83.056641%, 39.962769%, 16.802979%)"/>
   <stop offset="0.69" stop-color="rgb(82.88269%, 39.715576%, 16.645813%)"/>
   <stop offset="0.7" stop-color="rgb(82.70874%, 39.468384%, 16.487122%)"/>
   <stop offset="0.72" stop-color="rgb(82.53479%, 39.221191%, 16.329956%)"/>
   <stop offset="0.73" stop-color="rgb(82.359314%, 38.973999%, 16.172791%)"/>
   <stop offset="0.75" stop-color="rgb(82.185364%, 38.725281%, 16.015625%)"/>
   <stop offset="0.77" stop-color="rgb(82.011414%, 38.478088%, 15.858459%)"/>
   <stop offset="0.78" stop-color="rgb(81.837463%, 38.230896%, 15.699768%)"/>
   <stop offset="0.8" stop-color="rgb(81.663513%, 37.983704%, 15.542603%)"/>
   <stop offset="0.81" stop-color="rgb(81.488037%, 37.736511%, 15.385437%)"/>
   <stop offset="0.83" stop-color="rgb(81.314087%, 37.489319%, 15.228271%)"/>
   <stop offset="0.84" stop-color="rgb(81.140137%, 37.242126%, 15.071106%)"/>
   <stop offset="0.86" stop-color="rgb(80.966187%, 36.993408%, 14.91394%)"/>
   <stop offset="0.88" stop-color="rgb(80.79071%, 36.746216%, 14.755249%)"/>
   <stop offset="0.89" stop-color="rgb(80.61676%, 36.499023%, 14.598083%)"/>
   <stop offset="0.91" stop-color="rgb(80.44281%, 36.251831%, 14.440918%)"/>
   <stop offset="0.92" stop-color="rgb(80.26886%, 36.004639%, 14.283752%)"/>
   <stop offset="0.94" stop-color="rgb(80.093384%, 35.757446%, 14.126587%)"/>
   <stop offset="0.95" stop-color="rgb(79.919434%, 35.510254%, 13.969421%)"/>
   <stop offset="0.97" stop-color="rgb(79.745483%, 35.261536%, 13.81073%)"/>
   <stop offset="0.98" stop-color="rgb(79.571533%, 35.014343%, 13.653564%)"/>
   <stop offset="1" stop-color="rgb(79.397583%, 34.767151%, 13.496399%)"/>
  </linearGradient>
  <clipPath id="clip-12">
   <path clip-rule="nonzero" d="m1023,454l146,0l0,162l-146,0l0,-162zm0,0" id="svg_13"/>
  </clipPath>
  <clipPath id="clip-13">
   <path clip-rule="nonzero" d="m1098.86,454.41c-23.58,53.11 -50.14,108.52 -75.55,160.48l0.46,0.46c2.05,-0.23 5.72,-0.46 8.69,-0.46c2.52,0 5.73,0.23 8.25,0.46c4.12,-14.19 12.82,-37.32 22.66,-60.67c9.39,-0.23 18.09,-0.23 27.47,-0.23c10.08,0 22.44,0 30.45,0.23c8.25,21.52 16.71,45.1 21.3,60.67c3.89,-0.23 8.01,-0.46 11.44,-0.46c3.66,0 9.85,0.23 13.74,0.46l0.68,-0.46c-11.44,-24.03 -45.33,-107.14 -65.93,-160.48l-3.66,0zm-31.6,90.43c6.87,-16.71 20.15,-46.25 27.02,-60.9c7.1,17.4 18.77,48.31 23.35,60.9c-6.41,0.23 -17.4,0.23 -25.87,0.23c-7.78,0 -17.86,0 -24.5,-0.23" id="svg_14"/>
  </clipPath>
  <linearGradient id="linear-pattern-6" x1="0.47" x2="0.5" y1="0.01" y2="0.99">
   <stop offset="0" stop-color="rgb(90.144348%, 50.022888%, 23.204041%)"/>
   <stop offset="0.02" stop-color="rgb(90.057373%, 49.897766%, 23.124695%)"/>
   <stop offset="0.03" stop-color="rgb(89.883423%, 49.650574%, 22.967529%)"/>
   <stop offset="0.05" stop-color="rgb(89.707947%, 49.403381%, 22.810364%)"/>
   <stop offset="0.06" stop-color="rgb(89.533997%, 49.156189%, 22.653198%)"/>
   <stop offset="0.08" stop-color="rgb(89.360046%, 48.908997%, 22.494507%)"/>
   <stop offset="0.09" stop-color="rgb(89.18457%, 48.660278%, 22.337341%)"/>
   <stop offset="0.11" stop-color="rgb(89.01062%, 48.413086%, 22.180176%)"/>
   <stop offset="0.13" stop-color="rgb(88.83667%, 48.165894%, 22.02301%)"/>
   <stop offset="0.14" stop-color="rgb(88.66272%, 47.918701%, 21.864319%)"/>
   <stop offset="0.16" stop-color="rgb(88.487244%, 47.669983%, 21.707153%)"/>
   <stop offset="0.17" stop-color="rgb(88.313293%, 47.422791%, 21.549988%)"/>
   <stop offset="0.19" stop-color="rgb(88.139343%, 47.175598%, 21.392822%)"/>
   <stop offset="0.2" stop-color="rgb(87.963867%, 46.928406%, 21.234131%)"/>
   <stop offset="0.22" stop-color="rgb(87.789917%, 46.679688%, 21.076965%)"/>
   <stop offset="0.23" stop-color="rgb(87.615967%, 46.432495%, 20.9198%)"/>
   <stop offset="0.25" stop-color="rgb(87.440491%, 46.185303%, 20.762634%)"/>
   <stop offset="0.27" stop-color="rgb(87.266541%, 45.93811%, 20.603943%)"/>
   <stop offset="0.28" stop-color="rgb(87.09259%, 45.689392%, 20.446777%)"/>
   <stop offset="0.3" stop-color="rgb(86.917114%, 45.4422%, 20.289612%)"/>
   <stop offset="0.31" stop-color="rgb(86.743164%, 45.195007%, 20.132446%)"/>
   <stop offset="0.33" stop-color="rgb(86.569214%, 44.947815%, 19.973755%)"/>
   <stop offset="0.34" stop-color="rgb(86.393738%, 44.699097%, 19.816589%)"/>
   <stop offset="0.36" stop-color="rgb(86.219788%, 44.451904%, 19.659424%)"/>
   <stop offset="0.38" stop-color="rgb(86.045837%, 44.204712%, 19.502258%)"/>
   <stop offset="0.39" stop-color="rgb(85.871887%, 43.95752%, 19.343567%)"/>
   <stop offset="0.41" stop-color="rgb(85.696411%, 43.708801%, 19.186401%)"/>
   <stop offset="0.42" stop-color="rgb(85.522461%, 43.461609%, 19.029236%)"/>
   <stop offset="0.44" stop-color="rgb(85.348511%, 43.214417%, 18.87207%)"/>
   <stop offset="0.45" stop-color="rgb(85.173035%, 42.967224%, 18.714905%)"/>
   <stop offset="0.47" stop-color="rgb(84.999084%, 42.718506%, 18.556213%)"/>
   <stop offset="0.48" stop-color="rgb(84.825134%, 42.471313%, 18.399048%)"/>
   <stop offset="0.5" stop-color="rgb(84.649658%, 42.224121%, 18.241882%)"/>
   <stop offset="0.52" stop-color="rgb(84.475708%, 41.976929%, 18.084717%)"/>
   <stop offset="0.53" stop-color="rgb(84.301758%, 41.72821%, 17.926025%)"/>
   <stop offset="0.55" stop-color="rgb(84.126282%, 41.481018%, 17.76886%)"/>
   <stop offset="0.56" stop-color="rgb(83.952332%, 41.233826%, 17.611694%)"/>
   <stop offset="0.58" stop-color="rgb(83.778381%, 40.986633%, 17.454529%)"/>
   <stop offset="0.59" stop-color="rgb(83.604431%, 40.737915%, 17.295837%)"/>
   <stop offset="0.61" stop-color="rgb(83.428955%, 40.490723%, 17.138672%)"/>
   <stop offset="0.63" stop-color="rgb(83.255005%, 40.24353%, 16.981506%)"/>
   <stop offset="0.64" stop-color="rgb(83.081055%, 39.996338%, 16.824341%)"/>
   <stop offset="0.66" stop-color="rgb(82.905579%, 39.74762%, 16.665649%)"/>
   <stop offset="0.67" stop-color="rgb(82.731628%, 39.500427%, 16.508484%)"/>
   <stop offset="0.69" stop-color="rgb(82.557678%, 39.253235%, 16.351318%)"/>
   <stop offset="0.7" stop-color="rgb(82.382202%, 39.006042%, 16.194153%)"/>
   <stop offset="0.72" stop-color="rgb(82.208252%, 38.757324%, 16.035461%)"/>
   <stop offset="0.73" stop-color="rgb(82.034302%, 38.510132%, 15.878296%)"/>
   <stop offset="0.75" stop-color="rgb(81.858826%, 38.262939%, 15.72113%)"/>
   <stop offset="0.77" stop-color="rgb(81.684875%, 38.015747%, 15.563965%)"/>
   <stop offset="0.78" stop-color="rgb(81.510925%, 37.767029%, 15.405273%)"/>
   <stop offset="0.8" stop-color="rgb(81.335449%, 37.519836%, 15.248108%)"/>
   <stop offset="0.81" stop-color="rgb(81.161499%, 37.272644%, 15.090942%)"/>
   <stop offset="0.83" stop-color="rgb(80.987549%, 37.025452%, 14.933777%)"/>
   <stop offset="0.84" stop-color="rgb(80.813599%, 36.776733%, 14.775085%)"/>
   <stop offset="0.86" stop-color="rgb(80.638123%, 36.529541%, 14.61792%)"/>
   <stop offset="0.88" stop-color="rgb(80.464172%, 36.282349%, 14.460754%)"/>
   <stop offset="0.89" stop-color="rgb(80.290222%, 36.035156%, 14.303589%)"/>
   <stop offset="0.91" stop-color="rgb(80.114746%, 35.786438%, 14.144897%)"/>
   <stop offset="0.92" stop-color="rgb(79.940796%, 35.539246%, 13.987732%)"/>
   <stop offset="0.94" stop-color="rgb(79.766846%, 35.292053%, 13.830566%)"/>
   <stop offset="0.95" stop-color="rgb(79.59137%, 35.044861%, 13.673401%)"/>
   <stop offset="0.97" stop-color="rgb(79.417419%, 34.796143%, 13.514709%)"/>
   <stop offset="1" stop-color="rgb(79.272461%, 34.590149%, 13.38501%)"/>
  </linearGradient>
 </defs>
 <g class="layer">
  <title>Layer 1</title>
  <g clip-path="url(#clip-0)" id="svg_16">
   <g clip-path="url(#clip-1)" id="svg_17">
    <path d="m1550.5,397.54l-340.25,11.34l8.95,268.2l340.24,-11.34l-8.94,-268.2zm0,0" fill="url(#linear-pattern-0)" fill-rule="nonzero" id="svg_18"/>
   </g>
  </g>
  <g clip-path="url(#clip-2)" id="svg_19">
   <g clip-path="url(#clip-3)" id="svg_20">
    <path d="m1484.5,404.72l-127.13,4.24l7.99,239.71l127.13,-4.23l-7.99,-239.72zm0,0" fill="url(#linear-pattern-1)" fill-rule="nonzero" id="svg_21"/>
   </g>
  </g>
  <g clip-path="url(#clip-4)" id="svg_22">
   <g clip-path="url(#clip-5)" id="svg_23">
    <path d="m1357.32,406.51l-15.57,0.52l1.23,36.97l15.57,-0.52l-1.23,-36.97zm0,0" fill="url(#linear-pattern-2)" fill-rule="nonzero" id="svg_24"/>
   </g>
  </g>
  <path d="m774.32,733.39c0,0.61 0,1.09 0,1.56c0,16.21 -0.01,32.41 -0.01,48.61c0,1.44 -0.07,1.51 -1.52,1.51c-1.77,0 -3.54,0 -5.3,-0.01c-1.13,-0.01 -1.26,-0.14 -1.26,-1.3c0.02,-12.37 0.04,-24.74 0.06,-37.11c0,-0.19 0,-0.38 -0.14,-0.63c-1.02,1.41 -2.06,2.81 -3.07,4.23c-5.11,7.19 -10.21,14.39 -15.31,21.57c-1.02,1.44 -2.08,2.86 -3.09,4.3c-0.55,0.79 -1.22,1.18 -2.24,1.15c-3.59,-0.11 -2.77,0.41 -5,-2.59c-4.4,-5.9 -8.71,-11.86 -13.05,-17.81c-2.59,-3.55 -5.16,-7.12 -7.85,-10.82c-0.02,0.36 -0.06,0.57 -0.05,0.77c0.01,12.5 0.01,25 0.03,37.49c0,0.4 0.05,0.77 -0.56,0.76c-2.3,-0.02 -4.6,-0.01 -6.9,-0.02c-0.09,0 -0.19,-0.04 -0.33,-0.07l0,-51.42c0.06,-0.05 0.1,-0.11 0.14,-0.11c2.3,-0.01 4.6,-0.04 6.9,0.03c0.36,0.01 0.79,0.43 1.04,0.77l8.69,11.98c5.26,7.23 10.54,14.45 15.82,21.68c0.05,0.05 0.11,0.1 0.22,0.21c0.75,-1.05 1.48,-2.09 2.22,-3.12c5.67,-8.01 11.35,-16.02 17.02,-24.03c1.58,-2.23 3.15,-4.47 4.71,-6.71c0.43,-0.62 0.92,-0.91 1.72,-0.89c2.32,0.05 4.65,0.02 7.11,0.02" fill="#030307" fill-rule="nonzero" id="svg_25" transform="matrix(1 0 0 1 0 0)"/>
  <path d="m1071.23,759.62c0.21,0.02 0.38,0.06 0.55,0.06c8.52,0.01 17.04,0.02 25.57,0.01c1.98,0 3.92,-0.33 5.77,-1.1c3.74,-1.59 5.74,-4.78 5.68,-9.06c-0.05,-3.78 -2.35,-6.99 -5.98,-8.39c-2.06,-0.79 -4.21,-1.08 -6.4,-1.08c-8.14,0 -16.28,-0.01 -24.41,-0.01c-0.25,0 -0.5,0.02 -0.78,0.04l0,19.53zm-8.12,-26.08c0.57,0 1.08,0 1.59,0c10.44,0 20.88,0 31.32,0.01c3.29,0 6.55,0.2 9.72,1.18c8.17,2.54 11.96,9.27 11.25,17.11c-0.59,6.62 -4.83,11.28 -11.51,13.04c-0.84,0.22 -1.69,0.38 -2.72,0.61c5.47,6.53 10.88,12.97 16.37,19.51c-0.26,0.03 -0.4,0.06 -0.53,0.07c-3.07,0 -6.15,0.02 -9.21,0c-0.32,0 -0.74,-0.21 -0.94,-0.45c-4.8,-5.82 -9.58,-11.65 -14.36,-17.48c-0.34,-0.42 -0.68,-0.67 -1.27,-0.67c-7.09,0.01 -14.18,-0.02 -21.27,-0.04c-0.08,0 -0.15,0.03 -0.32,0.05l0,18.39l-8.12,0l0,-51.33zm0,0" fill="#030307" fill-rule="nonzero" id="svg_26"/>
  <path d="m836.78,739.27c-4.35,-0.02 -8.45,0.62 -12.2,2.04c-7.65,2.89 -12.47,8.1 -13.02,16.52c-0.43,6.67 1.98,12.22 7.33,16.35c3.67,2.82 7.94,4.2 12.45,4.85c6.16,0.88 12.2,0.55 18.05,-1.76c9.39,-3.72 14.26,-13.16 11.69,-22.91c-1.7,-6.46 -6.04,-10.57 -12.12,-13c-3.91,-1.57 -8.01,-2.06 -12.18,-2.09m-0.06,46.86c-6.42,-0.05 -12.66,-0.98 -18.53,-3.68c-4.87,-2.23 -8.99,-5.38 -11.72,-10.1c-2.83,-4.88 -3.99,-10.17 -3.36,-15.76c1.25,-11.19 7.89,-18 18.15,-21.63c5.96,-2.1 12.17,-2.6 18.47,-2.25c5.2,0.29 10.26,1.21 15.02,3.4c7.79,3.59 13.15,9.31 15.07,17.81c2.47,10.89 -2.47,21.75 -12.21,27.27c-4.9,2.77 -10.2,4.17 -15.76,4.66c-1.71,0.15 -3.42,0.19 -5.13,0.28" fill="#030307" fill-rule="nonzero" id="svg_27"/>
  <path d="m1001.05,779.6c4.23,-0.07 8.37,-0.65 12.33,-2.2c3.82,-1.49 7.11,-3.74 9.4,-7.21c6.83,-10.37 2.39,-24.1 -9.21,-28.68c-5.28,-2.08 -10.77,-2.58 -16.36,-2.04c-4.94,0.47 -9.61,1.82 -13.67,4.77c-4.97,3.62 -7.72,8.49 -7.72,14.67c0,7.83 3.69,13.55 10.5,17.26c4.57,2.49 9.58,3.32 14.73,3.43m0,6.51c-6.42,-0.06 -12.72,-1.01 -18.62,-3.79c-6.23,-2.94 -10.89,-7.45 -13.41,-13.96c-3.99,-10.28 -0.71,-21.89 7.98,-28.66c4.48,-3.5 9.58,-5.42 15.09,-6.4c8.16,-1.43 16.24,-0.97 24.11,1.61c6.69,2.19 12,6.26 15.34,12.57c5.73,10.87 3.94,27.59 -12.16,34.98c-5.81,2.67 -11.97,3.58 -18.33,3.65" fill="#030307" fill-rule="nonzero" id="svg_28"/>
  <path d="m1195.68,739.88c-1.18,1.65 -2.36,3.31 -3.46,4.85c-2.31,-1.09 -4.49,-2.29 -6.8,-3.16c-5.83,-2.17 -11.9,-2.65 -18.07,-2.27c-2.92,0.18 -5.8,0.61 -8.57,1.6c-1.98,0.71 -3.79,1.7 -5.04,3.47c-1.9,2.72 -1.33,5.91 1.42,7.78c2.11,1.43 4.52,2.08 7,2.37c4.59,0.55 9.21,0.93 13.82,1.39c4.1,0.4 8.2,0.81 12.18,1.98c2.19,0.65 4.32,1.48 6.16,2.87c4.93,3.74 6.09,10.58 2.73,16.1c-1.87,3.09 -4.67,5.04 -7.93,6.37c-3.71,1.52 -7.62,2.19 -11.58,2.55c-7.06,0.64 -14.07,0.26 -20.96,-1.48c-4.96,-1.25 -9.51,-3.43 -13.6,-6.7c1.58,-1.75 3.15,-3.48 4.74,-5.24c2.17,1.71 4.49,3.1 7,4.16c4.15,1.76 8.53,2.52 12.99,2.82c4.72,0.33 9.41,0.18 14.05,-0.86c2.32,-0.51 4.51,-1.34 6.32,-2.96c2.25,-2.03 2.85,-5.17 1.47,-7.75c-0.75,-1.42 -2.01,-2.29 -3.44,-2.93c-2.7,-1.2 -5.58,-1.68 -8.49,-1.97c-4.6,-0.47 -9.23,-0.82 -13.83,-1.27c-3.52,-0.35 -7.02,-0.89 -10.36,-2.1c-2.52,-0.92 -4.81,-2.19 -6.5,-4.32c-3.47,-4.36 -3.14,-11.23 0.69,-15.4c2.73,-2.97 6.2,-4.63 10.03,-5.61c7.9,-2.04 15.86,-2 23.83,-0.54c4.53,0.82 8.8,2.32 12.62,4.94c0.49,0.34 0.94,0.71 1.41,1.07c0.05,0.04 0.08,0.12 0.17,0.24" fill="#030307" fill-rule="nonzero" id="svg_29"/>
  <path d="m946.78,740.01l-23.28,0c-0.02,0.35 -0.05,0.65 -0.05,0.94c0,14.26 0,28.52 0,42.78c0,1.22 -0.01,1.23 -1.25,1.23c-2,-0.01 -3.99,-0.01 -5.99,-0.01c-1.06,0 -1.12,-0.05 -1.11,-1.13c0,-14.06 0,-28.11 0.01,-42.17c0,-0.51 0,-1.01 0,-1.61c-0.35,0 -0.63,0 -0.9,0c-6.93,-0.01 -13.87,-0.02 -20.8,-0.02c-1.32,0 -1.32,-0.02 -1.32,-1.34c0,-1.33 0,-2.66 0,-3.99c0.01,-1.14 0.2,-1.33 1.36,-1.33c8.03,0 16.07,0 24.11,0.01c9.47,0.01 18.94,0.02 28.41,0.04c0.25,0 0.5,0 0.81,0l0,6.6zm0,0" fill="#030307" fill-rule="nonzero" id="svg_30"/>
  <g clip-path="url(#clip-6)" id="svg_31" transform="matrix(1 0 0 1 0 0)">
   <g clip-path="url(#clip-7)" id="svg_32">
    <path d="m586.76,455.02l-148.41,3.84l4.15,160.22l148.41,-3.83l-4.15,-160.23zm0,0" fill="url(#linear-pattern-3)" fill-rule="nonzero" id="svg_33"/>
   </g>
  </g>
  <g clip-path="url(#clip-8)" id="svg_34" transform="matrix(1 0 0 1 0 0)">
   <g clip-path="url(#clip-9)" id="svg_35">
    <path d="m755.67,450.66l-149.21,3.86l4.26,164.58l149.21,-3.86l-4.26,-164.58zm0,0" fill="url(#linear-pattern-4)" fill-rule="nonzero" id="svg_36"/>
   </g>
  </g>
  <g clip-path="url(#clip-10)" id="svg_37">
   <g clip-path="url(#clip-11)" id="svg_38">
    <path d="m981.11,450.77l-188.99,4.89l4.25,164.47l188.99,-4.89l-4.25,-164.47zm0,0" fill="url(#linear-pattern-5)" fill-rule="nonzero" id="svg_39"/>
   </g>
  </g>
  <g clip-path="url(#clip-12)" id="svg_40">
   <g clip-path="url(#clip-13)" id="svg_41">
    <path d="m1168.36,450.66l-149.21,3.86l4.25,164.58l149.21,-3.86l-4.25,-164.58zm0,0" fill="url(#linear-pattern-6)" fill-rule="nonzero" id="svg_42"/>
   </g>
  </g>
 </g>
</svg>